<svg xmlns="http://www.w3.org/2000/svg" width="24" height="24" fill="none" viewBox="0 0 24 24">
  <path stroke="#000" stroke-linecap="round" stroke-linejoin="round" stroke-width="1.5" d="M8 3.75V7m8-3.25V7M4 10h16M8.8 20.25h6.4c1.68 0 2.52 0 3.162-.327a3 3 0 0 0 1.311-1.311C20 17.97 20 17.13 20 15.45v-5.4c0-1.68 0-2.52-.327-3.162a3 3 0 0 0-1.311-1.311C17.72 5.25 16.88 5.25 15.2 5.25H8.8c-1.68 0-2.52 0-3.162.327a3 3 0 0 0-1.311 1.311C4 7.53 4 8.37 4 10.05v5.4c0 1.68 0 2.52.327 3.162a3 3 0 0 0 1.311 1.311c.642.327 1.482.327 3.162.327Z"/>
</svg>