<svg xmlns="http://www.w3.org/2000/svg" width="24" height="24" fill="none" viewBox="0 0 24 24">
  <path stroke="#000" stroke-linecap="round" stroke-linejoin="round" stroke-width="1.5" d="M8 16v-4m8 4v-5.5M12 16V8M8.8 20h6.4c1.68 0 2.52 0 3.162-.327a3 3 0 0 0 1.311-1.311C20 17.72 20 16.88 20 15.2V8.8c0-1.68 0-2.52-.327-3.162a3 3 0 0 0-1.311-1.311C17.72 4 16.88 4 15.2 4H8.8c-1.68 0-2.52 0-3.162.327a3 3 0 0 0-1.311 1.311C4 6.28 4 7.12 4 8.8v6.4c0 1.68 0 2.52.327 3.162a3 3 0 0 0 1.311 1.311C6.28 20 7.12 20 8.8 20Z"/>
</svg>